<svg xmlns="http://www.w3.org/2000/svg" width="1318" height="730" viewBox="0 0 1318 730">
  <g fill="none" opacity=".1">
    <polygon points="0 0 1318 0 1318 730 0 730"/>
    <path fill="#55B7FB" d="M1223.56494,566.901337 C1228.57058,545.742815 1247.57233,530 1270.24894,530 C1275.13662,530 1279.85359,530.731364 1284.29649,532.090683 C1285.25259,532.383208 1286.43634,532.818059 1287.84772,533.395238 C1289.79024,534.18963 1290.72099,536.408334 1289.92661,538.350859 C1289.84789,538.543357 1289.75349,538.729069 1289.64438,538.906121 L1287.29372,542.720514 C1286.33886,544.269936 1284.41947,544.924773 1282.71673,544.282039 C1281.30182,543.747956 1280.13594,543.363207 1279.21909,543.127794 C1276.35159,542.391521 1273.34596,542 1270.24894,542 C1254.13949,542 1240.50281,552.593179 1235.91727,567.197443 C1235.62865,568.116651 1235.33258,569.358701 1235.02904,570.923594 C1234.68253,572.709984 1233.11825,574 1231.29857,574 L1226.80001,574 C1224.70132,574.000009 1223,572.298687 1223,570.2 C1223,569.996536 1223.01634,569.7934 1223.04887,569.592552 C1223.22331,568.515322 1223.39533,567.618251 1223.56494,566.901337 Z"/>
    <path fill="#F65E2E" d="M827.959769,429.506507 C832.965409,408.347986 851.967162,392.60517 874.643765,392.60517 C879.531454,392.60517 884.248421,393.336534 888.691315,394.695854 C889.647421,394.988378 890.831166,395.423229 892.242551,396.000408 C894.185073,396.7948 895.115823,399.013504 894.321437,400.956029 C894.242716,401.148527 894.148324,401.334239 894.039213,401.511291 L891.688547,405.325685 C890.733693,406.875106 888.814303,407.529943 887.111556,406.88721 C885.696646,406.353126 884.530768,405.968378 883.613922,405.732964 C880.746424,404.996691 877.740791,404.60517 874.643765,404.60517 C858.53432,404.60517 844.897645,415.198349 840.312104,429.802613 C840.023485,430.721821 839.727407,431.963871 839.42387,433.528764 C839.077363,435.315154 837.513084,436.60517 835.693398,436.60517 L831.194839,436.60517 C829.096152,436.60518 827.39483,434.903857 827.39483,432.80517 C827.39483,432.601706 827.411171,432.39857 827.443696,432.197722 C827.618139,431.120493 827.790163,430.223421 827.959769,429.506507 Z" transform="rotate(90 861 414.605)"/>
    <path fill="#3499DF" d="M793.062702,154.756483 C798.068342,133.597961 817.070095,117.855146 839.746698,117.855146 C844.634387,117.855146 849.351353,118.58651 853.794248,119.945829 C854.750354,120.238353 855.934099,120.673205 857.345484,121.250384 C859.288006,122.044776 860.218756,124.26348 859.42437,126.206004 C859.345649,126.398503 859.251257,126.584214 859.142146,126.761267 L856.79148,130.57566 C855.836625,132.125082 853.917236,132.779918 852.214488,132.137185 C850.799579,131.603102 849.633701,131.218353 848.716855,130.982939 C845.849357,130.246667 842.843724,129.855146 839.746698,129.855146 C823.637253,129.855146 810.000577,140.448324 805.415036,155.052589 C805.126418,155.971796 804.83034,157.213847 804.526803,158.77874 C804.180295,160.56513 802.616017,161.855146 800.796331,161.855146 L796.297772,161.855146 C794.199085,161.855155 792.497763,160.153833 792.497763,158.055146 C792.497763,157.851681 792.514104,157.648545 792.546629,157.447697 C792.721072,156.370468 792.893096,155.473397 793.062702,154.756483 Z" opacity=".5" transform="rotate(150 826.103 139.855)"/>
    <path fill="#3499DF" d="M1149.95977,162.506507 C1154.96541,141.347986 1173.96716,125.60517 1196.64377,125.60517 C1201.53145,125.60517 1206.24842,126.336534 1210.69131,127.695854 C1211.64742,127.988378 1212.83117,128.423229 1214.24255,129.000408 C1216.18507,129.7948 1217.11582,132.013504 1216.32144,133.956029 C1216.24272,134.148527 1216.14832,134.334239 1216.03921,134.511291 L1213.68855,138.325685 C1212.73369,139.875106 1210.8143,140.529943 1209.11156,139.88721 C1207.69665,139.353126 1206.53077,138.968378 1205.61392,138.732964 C1202.74642,137.996691 1199.74079,137.60517 1196.64377,137.60517 C1180.53432,137.60517 1166.89764,148.198349 1162.3121,162.802613 C1162.02348,163.721821 1161.72741,164.963871 1161.42387,166.528764 C1161.07736,168.315154 1159.51308,169.60517 1157.6934,169.60517 L1153.19484,169.60517 C1151.09615,169.60518 1149.39483,167.903857 1149.39483,165.80517 C1149.39483,165.601706 1149.41117,165.39857 1149.4437,165.197722 C1149.61814,164.120493 1149.79016,163.223421 1149.95977,162.506507 Z" transform="rotate(-90 1183 147.605)"/>
    <path fill="#AB0990" d="M671.610896,625.929165 C676.616536,604.770644 695.618289,589.027828 718.294892,589.027828 C723.182581,589.027828 727.899547,589.759192 732.342442,591.118512 C733.298548,591.411036 734.482293,591.845887 735.893678,592.423066 C737.8362,593.217458 738.76695,595.436162 737.972564,597.378687 C737.893843,597.571186 737.799451,597.756897 737.69034,597.933949 L735.339674,601.748343 C734.384819,603.297764 732.46543,603.952601 730.762682,603.309868 C729.347773,602.775784 728.181895,602.391036 727.265049,602.155622 C724.397551,601.419349 721.391918,601.027828 718.294892,601.027828 C702.185447,601.027828 688.548771,611.621007 683.96323,626.225271 C683.674612,627.144479 683.378534,628.386529 683.074997,629.951422 C682.72849,631.737812 681.164211,633.027828 679.344525,633.027828 L674.845966,633.027828 C672.747279,633.027838 671.045957,631.326515 671.045957,629.227828 C671.045957,629.024364 671.062298,628.821228 671.094823,628.62038 C671.269266,627.543151 671.44129,626.646079 671.610896,625.929165 Z" transform="rotate(99 704.651 611.028)"/>
    <path fill="#55B7FB" d="M74.5649396,82.9013369 C79.5705795,61.7428155 98.5723324,46 121.248935,46 C126.136624,46 130.853591,46.7313639 135.296485,48.0906835 C136.252591,48.3832076 137.436337,48.8180591 138.847721,49.3952379 C140.790243,50.1896303 141.720993,52.4083342 140.926608,54.3508585 C140.847886,54.5433573 140.753494,54.7290686 140.644384,54.9061213 L138.293717,58.7205144 C137.338863,60.2699362 135.419473,60.9247726 133.716726,60.2820395 C132.301816,59.747956 131.135938,59.3632074 130.219093,59.1277936 C127.351595,58.3915208 124.345961,58 121.248935,58 C105.139491,58 91.5028147,68.5931785 86.9172737,83.1974431 C86.628655,84.1166506 86.3325773,85.358701 86.0290405,86.9235943 C85.6825328,88.7099841 84.1182541,90 82.2985684,90 L77.8000094,90 C75.7013221,90.0000094 74,88.2986873 74,86.2 C74,85.9965355 74.0163412,85.7933996 74.0488659,85.5925515 C74.223309,84.5153224 74.3953336,83.6182509 74.5649396,82.9013369 Z"/>
    <path fill="#F65E2E" d="M361.959769,171.506507 C366.965409,150.347986 385.967162,134.60517 408.643765,134.60517 C413.531454,134.60517 418.248421,135.336534 422.691315,136.695854 C423.647421,136.988378 424.831166,137.423229 426.242551,138.000408 C428.185073,138.7948 429.115823,141.013504 428.321437,142.956029 C428.242716,143.148527 428.148324,143.334239 428.039213,143.511291 L425.688547,147.325685 C424.733693,148.875106 422.814303,149.529943 421.111556,148.88721 C419.696646,148.353126 418.530768,147.968378 417.613922,147.732964 C414.746424,146.996691 411.740791,146.60517 408.643765,146.60517 C392.53432,146.60517 378.897645,157.198349 374.312104,171.802613 C374.023485,172.721821 373.727407,173.963871 373.42387,175.528764 C373.077363,177.315154 371.513084,178.60517 369.693398,178.60517 L365.194839,178.60517 C363.096152,178.60518 361.39483,176.903857 361.39483,174.80517 C361.39483,174.601706 361.411171,174.39857 361.443696,174.197722 C361.618139,173.120493 361.790163,172.223421 361.959769,171.506507 Z" transform="rotate(90 395 156.605)"/>
    <path fill="#FFD76C" d="M2.81491518,319.00427 C7.82055502,297.845748 26.8223079,282.102933 49.4989108,282.102933 C54.3865998,282.102933 59.1035663,282.834297 63.5464605,284.193616 C64.5025666,284.48614 65.686312,284.920992 67.0976969,285.498171 C69.0402184,286.292563 69.9709687,288.511267 69.176583,290.453791 C69.0978616,290.64629 69.00347,290.832001 68.8943591,291.009054 L66.5436927,294.823447 C65.5888382,296.372869 63.6694489,297.027705 61.9667013,296.384972 C60.5517916,295.850889 59.3859139,295.46614 58.4690682,295.230726 C55.6015701,294.494454 52.5959369,294.102933 49.4989108,294.102933 C33.3894662,294.102933 19.7527902,304.696111 15.1672492,319.300376 C14.8786305,320.219583 14.5825528,321.461634 14.2790161,323.026527 C13.9325084,324.812917 12.3682297,326.102933 10.5485439,326.102933 L6.0499849,326.102933 C3.95129768,326.102942 2.24997553,324.40162 2.24997553,322.302933 C2.24997553,322.099468 2.26631669,321.896332 2.29884141,321.695484 C2.47328454,320.618255 2.64530913,319.721184 2.81491518,319.00427 Z" transform="rotate(-120 35.855 304.103)"/>
    <path fill="#3499DF" d="M514.062702,684.756483 C519.068342,663.597961 538.070095,647.855146 560.746698,647.855146 C565.634387,647.855146 570.351353,648.58651 574.794248,649.945829 C575.750354,650.238353 576.934099,650.673205 578.345484,651.250384 C580.288006,652.044776 581.218756,654.26348 580.42437,656.206004 C580.345649,656.398503 580.251257,656.584214 580.142146,656.761267 L577.79148,660.57566 C576.836625,662.125082 574.917236,662.779918 573.214488,662.137185 C571.799579,661.603102 570.633701,661.218353 569.716855,660.982939 C566.849357,660.246667 563.843724,659.855146 560.746698,659.855146 C544.637253,659.855146 531.000577,670.448324 526.415036,685.052589 C526.126418,685.971796 525.83034,687.213847 525.526803,688.77874 C525.180295,690.56513 523.616017,691.855146 521.796331,691.855146 L517.297772,691.855146 C515.199085,691.855155 513.497763,690.153833 513.497763,688.055146 C513.497763,687.851681 513.514104,687.648545 513.546629,687.447697 C513.721072,686.370468 513.893096,685.473397 514.062702,684.756483 Z" opacity=".5" transform="rotate(150 547.103 669.855)"/>
    <path fill="#3499DF" d="M604.959769,410.506507 C609.965409,389.347986 628.967162,373.60517 651.643765,373.60517 C656.531454,373.60517 661.248421,374.336534 665.691315,375.695854 C666.647421,375.988378 667.831166,376.423229 669.242551,377.000408 C671.185073,377.7948 672.115823,380.013504 671.321437,381.956029 C671.242716,382.148527 671.148324,382.334239 671.039213,382.511291 L668.688547,386.325685 C667.733693,387.875106 665.814303,388.529943 664.111556,387.88721 C662.696646,387.353126 661.530768,386.968378 660.613922,386.732964 C657.746424,385.996691 654.740791,385.60517 651.643765,385.60517 C635.53432,385.60517 621.897645,396.198349 617.312104,410.802613 C617.023485,411.721821 616.727407,412.963871 616.42387,414.528764 C616.077363,416.315154 614.513084,417.60517 612.693398,417.60517 L608.194839,417.60517 C606.096152,417.60518 604.39483,415.903857 604.39483,413.80517 C604.39483,413.601706 604.411171,413.39857 604.443696,413.197722 C604.618139,412.120493 604.790163,411.223421 604.959769,410.506507 Z" transform="rotate(-90 638 395.605)"/>
    <path fill="#AB0990" d="M623.062702,82.7564826 C628.068342,61.5979612 647.070095,45.8551457 669.746698,45.8551457 C674.634387,45.8551457 679.351353,46.5865096 683.794248,47.9458292 C684.750354,48.2383533 685.934099,48.6732047 687.345484,49.2503835 C689.288006,50.044776 690.218756,52.2634799 689.42437,54.2060042 C689.345649,54.398503 689.251257,54.5842143 689.142146,54.7612669 L686.79148,58.5756601 C685.836625,60.1250819 683.917236,60.7799183 682.214488,60.1371852 C680.799579,59.6031017 679.633701,59.2183531 678.716855,58.9829393 C675.849357,58.2466665 672.843724,57.8551457 669.746698,57.8551457 C653.637253,57.8551457 640.000577,68.4483242 635.415036,83.0525887 C635.126418,83.9717963 634.83034,85.2138467 634.526803,86.77874 C634.180295,88.5651298 632.616017,89.8551457 630.796331,89.8551457 L626.297772,89.8551457 C624.199085,89.8551551 622.497763,88.153833 622.497763,86.0551457 C622.497763,85.8516812 622.514104,85.6485453 622.546629,85.4476972 C622.721072,84.3704681 622.893096,83.4733966 623.062702,82.7564826 Z" transform="rotate(-150 656.103 67.855)"/>
    <path fill="#65AD48" d="M35.2785643,555.220132 C40.2842042,534.06161 59.2859571,518.318795 81.96256,518.318795 C86.850249,518.318795 91.5672155,519.050159 96.0101097,520.409478 C96.9662158,520.702002 98.1499612,521.136854 99.561346,521.714033 C101.503868,522.508425 102.434618,524.727129 101.640232,526.669653 C101.561511,526.862152 101.467119,527.047863 101.358008,527.224916 L99.0073419,531.039309 C98.0524874,532.588731 96.133098,533.243567 94.4303505,532.600834 C93.0154407,532.066751 91.849563,531.682002 90.9327173,531.446588 C88.0652193,530.710316 85.0595861,530.318795 81.96256,530.318795 C65.8531153,530.318795 52.2164394,540.911973 47.6308984,555.516238 C47.3422797,556.435445 47.046202,557.677496 46.7426652,559.242389 C46.3961575,561.028779 44.8318788,562.318795 43.0121931,562.318795 L38.5136341,562.318795 C36.4149468,562.318804 34.7136247,560.617482 34.7136247,558.518795 C34.7136247,558.31533 34.7299658,558.112194 34.7624906,557.911346 C34.9369337,556.834117 35.1089583,555.937046 35.2785643,555.220132 Z" transform="rotate(-45 68.319 540.319)"/>
    <circle cx="1294" cy="355" r="9" fill="#5DCC9B"/>
    <circle cx="1229" cy="47" r="9" fill="#AB0990"/>
    <circle cx="871" cy="189" r="9" fill="#FFD76C"/>
    <path fill="#8FD4FF" d="M1053,199 C1055.20914,199 1057,200.790861 1057,203 L1057,209 L1063,209 C1065.20914,209 1067,210.790861 1067,213 C1067,215.209139 1065.20914,217 1063,217 L1057,217 L1057,223 C1057,225.209139 1055.20914,227 1053,227 C1050.79086,227 1049,225.209139 1049,223 L1049,217 L1043,217 C1040.79086,217 1039,215.209139 1039,213 C1039,210.790861 1040.79086,209 1043,209 L1049,209 L1049,203 C1049,200.790861 1050.79086,199 1053,199 Z"/>
    <path fill="#B2B75A" d="M1178,449 C1180.20914,449 1182,450.790861 1182,453 L1182,459 L1188,459 C1190.20914,459 1192,460.790861 1192,463 C1192,465.209139 1190.20914,467 1188,467 L1182,467 L1182,473 C1182,475.209139 1180.20914,477 1178,477 C1175.79086,477 1174,475.209139 1174,473 L1174,467 L1168,467 C1165.79086,467 1164,465.209139 1164,463 C1164,460.790861 1165.79086,459 1168,459 L1174,459 L1174,453 C1174,450.790861 1175.79086,449 1178,449 Z"/>
    <path fill="#8FD4FF" d="M1299 108C1301.20914 108 1303 109.790861 1303 112L1303 118 1309 118C1311.20914 118 1313 119.790861 1313 122 1313 124.209139 1311.20914 126 1309 126L1303 126 1303 132C1303 134.209139 1301.20914 136 1299 136 1296.79086 136 1295 134.209139 1295 132L1295 126 1289 126C1286.79086 126 1285 124.209139 1285 122 1285 119.790861 1286.79086 118 1289 118L1295 118 1295 112C1295 109.790861 1296.79086 108 1299 108zM809 498C811.209139 498 813 499.790861 813 502L813 508 819 508C821.209139 508 823 509.790861 823 512 823 514.209139 821.209139 516 819 516L813 516 813 522C813 524.209139 811.209139 526 809 526 806.790861 526 805 524.209139 805 522L805 516 799 516C796.790861 516 795 514.209139 795 512 795 509.790861 796.790861 508 799 508L805 508 805 502C805 499.790861 806.790861 498 809 498z"/>
    <circle cx="315" cy="71" r="9" fill="#5DCC9B"/>
    <circle cx="455" cy="601" r="9" fill="#AB0990"/>
    <circle cx="574" cy="538" r="9" fill="#FFD76C"/>
    <path fill="#8FD4FF" d="M402,510 C404.209139,510 406,511.790861 406,514 L406,520 L412,520 C414.209139,520 416,521.790861 416,524 C416,526.209139 414.209139,528 412,528 L406,528 L406,534 C406,536.209139 404.209139,538 402,538 C399.790861,538 398,536.209139 398,534 L398,528 L392,528 C389.790861,528 388,526.209139 388,524 C388,521.790861 389.790861,520 392,520 L398,520 L398,514 C398,511.790861 399.790861,510 402,510 Z"/>
    <path fill="#B2B75A" d="M212,170 C214.209139,170 216,171.790861 216,174 L216,180 L222,180 C224.209139,180 226,181.790861 226,184 C226,186.209139 224.209139,188 222,188 L216,188 L216,194 C216,196.209139 214.209139,198 212,198 C209.790861,198 208,196.209139 208,194 L208,188 L202,188 C199.790861,188 198,186.209139 198,184 C198,181.790861 199.790861,180 202,180 L208,180 L208,174 C208,171.790861 209.790861,170 212,170 Z"/>
    <path fill="#8FD4FF" d="M108 610C110.209139 610 112 611.790861 112 614L112 620 118 620C120.209139 620 122 621.790861 122 624 122 626.209139 120.209139 628 118 628L112 628 112 634C112 636.209139 110.209139 638 108 638 105.790861 638 104 636.209139 104 634L104 628 98 628C95.790861 628 94 626.209139 94 624 94 621.790861 95.790861 620 98 620L104 620 104 614C104 611.790861 105.790861 610 108 610zM721 136C723.209139 136 725 137.790861 725 140L725 146 731 146C733.209139 146 735 147.790861 735 150 735 152.209139 733.209139 154 731 154L725 154 725 160C725 162.209139 723.209139 164 721 164 718.790861 164 717 162.209139 717 160L717 154 711 154C708.790861 154 707 152.209139 707 150 707 147.790861 708.790861 146 711 146L717 146 717 140C717 137.790861 718.790861 136 721 136z"/>
  </g>
</svg>
